<?xml version="1.0" encoding="UTF-8" standalone="no"?>
<!DOCTYPE svg PUBLIC "-//W3C//DTD SVG 1.1//EN" "http://www.w3.org/Graphics/SVG/1.1/DTD/svg11.dtd">
<svg viewBox="0 0 8500 10000" version="1.1" xmlns="http://www.w3.org/2000/svg" xmlns:xlink="http://www.w3.org/1999/xlink" fill-rule="evenodd">
	<g id="BarbaraRossa">
		<title>Barba Rossa, by Adam Stanislav</title>
		<desc>
			Try rotating the entire image by 180°.
		</desc>
		<path id="Head" d="m1499.97 3713.2c-63.071-215.311-96.703-441.59-96.703-675c0-1437.44 1275.58-2604.46 2846.73-2604.46c1571.16 0 2846.73 1167.02 2846.73 2604.46c0 233.41-33.632 459.689-96.703 675c63.071 215.311 96.703 441.591 96.703 675c0 1437.44-1275.58 2604.46-2846.73 2604.46c-1571.16 0-2846.73-1167.02-2846.73-2604.46c0-233.409 33.632-459.689 96.703-675z" fill="#ff9567"/>
		<g id="Eyes">
			<g id="Eye">
				<path d="m1882.66 2924.88c121.593-146.964 383.472-248.735 686.621-248.735c303.149 0 565.028 101.771 686.622 248.735c-121.594 146.963-383.473 248.734-686.622 248.734c-303.149 0-565.028-101.771-686.621-248.734z" fill="#f5d2c4"/>
				<clipPath id="EyeClip">
					<path d="m1882.66 2924.88c121.593-146.964 383.472-248.735 686.621-248.735c303.149 0 565.028 101.771 686.622 248.735c-121.594 146.963-383.473 248.734-686.622 248.734c-303.149 0-565.028-101.771-686.621-248.734z"/>
				</clipPath>
				<g clip-path="url(#EyeClip)">
					<path d="m2569.28 2655.54c142.966 0 259.036 116.07 259.036 259.036c0 142.966-116.07 259.036-259.036 259.036c-142.966 0-259.036-116.07-259.036-259.036c0-142.966 116.07-259.036 259.036-259.036zm0 173.554c47.179 0 85.482 38.304 85.482 85.482c0 47.179-38.303 85.482-85.482 85.482c-47.179 0-85.482-38.303-85.482-85.482c0-47.178 38.303-85.482 85.482-85.482z" fill="#4a0b14"/>
				</g>
			</g>
			<use xlink:href="#Eye" transform="translate(3260)"/>
		</g>
		<path id="Barba" d="m4004.23 4711.52c58.17 77.122 149.168 122.467 245.769 122.467c96.601 0 187.599-45.345 245.769-122.467c134.64-178.507 306.719-406.651 469.028-621.842c362.664-480.823 1017.69-632.784 1555.01-360.751c167.407 84.673 327.613 184.343 478.546 298.185c1397.54 1054.1 1676.37 3044.53 622.264 4442.07c-804.666 1066.83-2154.95 1481.76-3370.61 1149.5c-1215.66 332.265-2565.95-82.666-3370.61-1149.5c-1054.1-1397.54-775.277-3387.97 622.264-4442.07c150.933-113.842 311.139-213.512 478.551-298.175c537.317-272.03 1192.33-120.071 1554.99 360.748c162.318 215.184 334.397 443.328 469.037 621.835zm2324.08 1266.43h-956.024c-0.002 159.897-502.467 289.518-1122.29 289.518c-619.823 0-1122.29-129.622-1122.29-289.518h-956.024c0 296.104 930.492 536.144 2078.31 536.144c1147.82 0 2078.31-240.039 2078.31-536.144zm-2243.84-1092.24c-0.001 155.439-126.008 281.446-281.446 281.446c-155.334 0-281.446-126.112-281.446-281.446c0-155.438 126.008-281.446 281.446-281.446v-104.096c-212.929 0-385.542 172.613-385.542 385.542c0 212.786 172.756 385.542 385.542 385.542c212.929 0 385.541-172.612 385.542-385.542zm618.554-385.542c212.929 0 385.542 172.613 385.542 385.542c0 212.786-172.755 385.542-385.542 385.542c-212.929 0-385.542-172.613-385.542-385.542h104.096c0 155.438 126.008 281.446 281.446 281.446c155.334 0 281.446-126.112 281.446-281.446c0-155.438-126.008-281.446-281.446-281.446zm-883.024 266.939c69.821 0 126.506 56.686 126.506 126.506c0 69.821-56.685 126.506-126.506 126.506c-69.821 0-126.506-56.685-126.506-126.506c0-69.82 56.685-126.506 126.506-126.506zm860 0c69.821 0 126.506 56.686 126.506 126.506c0 69.821-56.685 126.506-126.506 126.506c-69.821 0-126.506-56.685-126.506-126.506c0-69.82 56.685-126.506 126.506-126.506z" fill="#f2442b"/>
		<path id="Wrinkles" d="m5611.45 1891.57c0-309.205-572.253-560.241-1277.11-560.241c-704.855 0-1277.11 251.036-1277.11 560.241c297.992-92.761 767.66-168.072 1277.11-168.072c509.449 0 979.117 75.311 1277.11 168.072z" fill="#ff6638"/>
	</g>
</svg>